<?xml version="1.0" encoding="UTF-8" standalone="no"?>
<!DOCTYPE svg PUBLIC "-//W3C//DTD SVG 1.1//EN" "http://www.w3.org/Graphics/SVG/1.1/DTD/svg11.dtd">
<svg width="100%" height="100%" viewBox="0 0 200 200" version="1.1" xmlns="http://www.w3.org/2000/svg" xmlns:xlink="http://www.w3.org/1999/xlink" xml:space="preserve" xmlns:serif="http://www.serif.com/" style="fill-rule:evenodd;clip-rule:evenodd;stroke-linecap:round;stroke-linejoin:round;stroke-miterlimit:1.5;">
    <g>
        <g transform="matrix(-0.398981,-0.821508,0.821508,-0.398981,27.897346,232.722584)">
            <path d="M17.224,129.182C34.471,156.572 74.8,182.088 104.854,176.327C134.58,170.629 156.264,132.031 150.371,100.529C144.625,69.809 112.25,54.65 83.636,62.175C62.793,67.657 50.41,89.813 54.303,111.011C57.548,128.675 74.498,140.364 92.162,137.12C106.293,134.524 115.645,120.964 113.049,106.833C111.103,96.234 100.933,89.221 90.334,91.167C83.268,92.465 78.593,99.245 79.89,106.311C80.539,109.844 83.929,112.182 87.462,111.533" style="fill:none;stroke:rgb(255,0,2);stroke-width:4.56px;"/>
        </g>
        <g transform="matrix(1,0,0,1,3.289584,3.320659)">
            <path d="M104.963,160.388C102.508,174.902 73.625,184.637 65.396,180.671C40.731,168.78 47.972,148.046 47.972,148.046C47.972,148.046 14.863,161.488 7.844,140.807C-1.302,113.858 24.177,103.495 24.177,103.495C24.177,103.495 -11.106,72.219 11.273,45.286C25.984,27.582 66.652,48.95 66.652,48.95C66.652,48.95 88.573,-2.862 123.805,14.391C146.417,25.464 133.749,71.344 133.749,71.344C133.749,71.344 189.695,45.988 189.581,100C189.525,126.816 148.431,141.281 148.431,141.281C148.431,141.281 173.958,166.079 163.649,175.931C144.075,194.64 119.72,167.349 119.72,167.349" style="fill:none;stroke:rgb(255,0,2);stroke-width:4.17px;"/>
        </g>
    </g>
</svg>
