<?xml version="1.0" encoding="UTF-8" standalone="no"?>
<!DOCTYPE svg PUBLIC "-//W3C//DTD SVG 1.1//EN" "http://www.w3.org/Graphics/SVG/1.1/DTD/svg11.dtd">
<svg width="100%" height="100%" viewBox="0 0 200 200" version="1.1" xmlns="http://www.w3.org/2000/svg" xmlns:xlink="http://www.w3.org/1999/xlink" xml:space="preserve" xmlns:serif="http://www.serif.com/" style="fill-rule:evenodd;clip-rule:evenodd;stroke-linecap:round;stroke-linejoin:round;stroke-miterlimit:1.5;">
    <g transform="matrix(1.533809,0,0,1.533809,-27.975798,-47.262327)">
        <g transform="matrix(1,0,0,1,24,19)">
            <path d="M60,121.996C54.667,121.996 50.539,126 44,126C32.962,126 24,117.038 24,106C24,99.696 29.32,93.735 30.487,90.402C30.975,89.009 31,87.512 31,86C31,74.962 39.962,66 51,66C54.039,66 56.667,67.894 59.5,67.894C62.333,67.894 64.961,66 68,66C79.038,66 88,74.962 88,86C88,87.28 88.184,88.581 88.649,89.745C89.983,93.079 96,99.306 96,106C96,117.038 87.038,126 76,126C69.461,126 65.333,121.996 60,121.996Z" style="stroke:black;stroke-width:0.27px;"/>
        </g>
        <g transform="matrix(0.672431,0.05883,-0.07844,0.896575,78.426561,-32.63311)">
            <path d="M44,86C55.038,86 64,94.962 64,106C64,117.038 55.038,121.556 44,121.556C32.962,121.556 24,117.038 24,106C24,94.962 32.962,86 44,86Z" style="stroke:black;stroke-width:0.34px;"/>
        </g>
        <g transform="matrix(0.672431,-0.05883,0.07844,0.896575,29.272671,-27.456059)">
            <path d="M44,86C55.038,86 64,94.962 64,106C64,117.038 55.038,121.556 44,121.556C32.962,121.556 24,117.038 24,106C24,94.962 32.962,86 44,86Z" style="stroke:black;stroke-width:0.34px;"/>
        </g>
        <g transform="matrix(0.652,-0.174703,0.232937,0.869333,-12.488498,2.334619)">
            <path d="M44,86C55.038,86 64,94.962 64,106C64,117.038 55.038,121.556 44,121.556C32.962,121.556 24,117.038 24,106C24,94.962 32.962,86 44,86Z" style="stroke:black;stroke-width:0.34px;"/>
        </g>
        <g transform="matrix(0.652,0.174703,-0.232937,0.869333,121.985702,-13.039232)">
            <path d="M44,86C55.038,86 64,94.962 64,106C64,117.038 55.038,121.556 44,121.556C32.962,121.556 24,117.038 24,106C24,94.962 32.962,86 44,86Z" style="stroke:black;stroke-width:0.34px;"/>
        </g>
    </g>
</svg>
